<?xml version="1.0" encoding="utf-8"?>
<!-- Generator: Adobe Illustrator 24.3.0, SVG Export Plug-In . SVG Version: 6.00 Build 0)  -->
<svg version="1.0" id="图层_1" focusable="false" xmlns="http://www.w3.org/2000/svg" xmlns:xlink="http://www.w3.org/1999/xlink"
	 x="0px" y="0px" viewBox="0 0 512 512" style="enable-background:new 0 0 512 512;" xml:space="preserve">
<style type="text/css">
	.st0{fill:#FFFFFF;}
</style>
<path class="st0" d="M0.2,184.4C-2.2,244.2,23,298.1,64,334.9V512h160V316.5L3.7,156.3C1.8,165.5,0.6,175,0.2,184.4z M509.2,275
	c-21-47.1-48.5-151.8-73.1-186.8C397.1,33,333.7,0,266.1,0H200C117,0,42.5,50.6,13.3,123.7l226,164.4h272.5
	C511.8,283.5,511,279.1,509.2,275z M320,224c-17.7,0-32-14.3-32-32s14.3-32,32-32s32,14.3,32,32C352,209.7,337.7,224,320,224z
	 M336,368h160l16-48H256v192h145.9c27.5,0,52-17.6,60.7-43.8l1.4-4.2H336c-8.8,0-16-7.2-16-16s7.2-16,16-16h138.7l10.7-32H336
	c-8.8,0-16-7.2-16-16S327.2,368,336,368z"/>
</svg>
